<?xml version="1.0" standalone="no"?>
<!DOCTYPE svg PUBLIC "-//W3C//DTD SVG 1.1//EN" "http://www.w3.org/Graphics/SVG/1.1/DTD/svg11.dtd" >
<svg xmlns="http://www.w3.org/2000/svg">
<metadata></metadata>
<defs>
<font id="a_futurarounddemiregular" horiz-adv-x="1191" >
<font-face units-per-em="2048" ascent="1638" descent="-410" />
<missing-glyph horiz-adv-x="614" />
<glyph horiz-adv-x="2048" />
<glyph horiz-adv-x="2048" />
<glyph unicode="&#xd;" horiz-adv-x="614" />
<glyph unicode=" "  horiz-adv-x="614" />
<glyph unicode="&#x09;" horiz-adv-x="614" />
<glyph unicode="&#xa0;" horiz-adv-x="614" />
<glyph unicode="!" horiz-adv-x="602" d="M166 117q0 59 43 102t102 43t102.5 -43t43.5 -102t-43 -102.5t-103 -43.5q-59 0 -102 43t-43 103zM182 590v764q0 166 127 166q129 0 129 -166v-764q0 -172 -127 -172q-129 0 -129 172z" />
<glyph unicode="&#x22;" horiz-adv-x="677" d="M98 1077v324q0 90 92 90q94 0 95 -90v-324q0 -41 -28 -73.5t-69 -32.5q-39 0 -64.5 32.5t-25.5 73.5zM416 1077v324q0 90 92 90t92 -90v-324q0 -43 -26.5 -74.5t-67.5 -31.5q-39 0 -64.5 32.5t-25.5 73.5z" />
<glyph unicode="#" horiz-adv-x="1187" d="M27 524q0 35 32.5 56.5t69.5 21.5h143l45 277h-127q-96 0 -96 75q0 37 28 58.5t64 21.5h152l57 365q12 84 92 84q41 0 62 -19q29 -27 22 -78l-49 -352h232l57 369q12 80 98 80q70 0 80 -72q4 -23 2 -31l-53 -346h123q100 0 100 -82q0 -74 -100 -73h-143l-44 -277h123 q96 0 97 -78q0 -76 -93 -75h-151l-53 -359q-14 -90 -92 -90q-53 0 -72 31q-25 41 -19 75l54 343h-234l-55 -359q-14 -90 -96 -90q-43 0 -62 31q-25 45 -20 75l47 343h-125q-45 0 -70.5 24.5t-25.5 50.5zM459 602h231l43 277h-235z" />
<glyph unicode="$" d="M106 197q0 53 35 83.5t88 30.5q23 0 95 -28q98 -37 102 -39q78 -25 162 -25q90 0 156.5 64.5t66.5 154.5q0 131 -178 205q-166 68 -332 135q-178 106 -178 316q0 166 117 280q111 104 280 129v92q0 84 64 84q55 0 65 -65v-107q117 -6 211 -45q129 -53 129 -147 q0 -51 -33.5 -81t-85.5 -30q-37 0 -126 37t-146 37q-86 0 -141 -43q-59 -49 -60 -133q0 -70 58 -107q43 -27 161 -73q250 -98 322 -152q147 -111 147 -309q0 -193 -120.5 -319t-315.5 -152v-125q1 -86 -65 -86q-63 0 -64 86v119q-131 4 -250 49q-164 61 -164 164z" />
<glyph unicode="%" horiz-adv-x="1511" d="M53 1161q0 145 90 246.5t234 101.5q143 0 233 -104q84 -99 84 -244q0 -141 -89 -240.5t-230 -99.5q-139 0 -230.5 99.5t-91.5 240.5zM231 1163q0 -68 39 -121t105 -53q70 0 110 53q35 47 35 121q0 72 -35 121q-39 57 -108 57q-72 0 -111 -55q-35 -47 -35 -123zM324 57 q0 31 30 95l627 1284q43 88 106 88q103 0 103 -82q0 -31 -25 -82l-342 -698q-27 -59 -84 -179q-72 -143 -213 -432q-41 -84 -110 -84q-39 0 -65.5 25.5t-26.5 64.5zM817 322q0 147 88 247.5t234 100.5q147 0 233 -99t86 -249q0 -143 -90 -241.5t-231 -98.5 q-137 0 -228.5 100t-91.5 240zM993 324q0 -68 37 -117q41 -55 107 -55q70 0 110 55q35 47 35 121q0 72 -35 121q-41 53 -110 53q-70 0 -109 -58q-35 -49 -35 -120z" />
<glyph unicode="&#x26;" horiz-adv-x="1421" d="M59 422q0 168 95 285q78 96 245 186q-154 168 -153 315q0 147 125 236q111 78 264 78q162 0 262 -80q111 -88 111 -246q0 -49 -9 -88q-23 -113 -254 -262l285 -334q51 72 162 203q39 39 78 39t71.5 -31t32.5 -70q0 -84 -203 -323l125 -152q41 -49 41 -117 q0 -37 -30.5 -59t-69.5 -22q-16 0 -33 6q-43 16 -196 190q-182 -205 -471 -205q-199 0 -338.5 127t-139.5 324zM317 424q0 -100 72 -165.5t174 -65.5q166 -1 305 153l-329 377q-221 -104 -222 -299zM494 1206q0 -84 127 -215q180 82 180 203q0 61 -48 98t-112 37 q-59 0 -103 -32.5t-44 -90.5z" />
<glyph unicode="'" horiz-adv-x="323" d="M70 1077v324q0 90 92 90t92 -90v-324q0 -41 -27.5 -73.5t-66.5 -32.5t-64.5 32.5t-25.5 73.5z" />
<glyph unicode="(" horiz-adv-x="555" d="M141 696q0 201 37 400q66 360 150 450q31 35 75 35q100 0 101 -98q0 -31 -29 -125q-18 -68 -39 -133q-65 -265 -65 -537q0 -248 39 -442q31 -150 86 -334q8 -27 8 -45q0 -96 -103 -96q-74 0 -120 108q-139 319 -140 817z" />
<glyph unicode=")" horiz-adv-x="555" d="M88 -131q0 10 39 147q96 338 96 672q0 254 -47 445l-86 348q0 100 98 100q78 0 127 -115q66 -154 103 -362q35 -199 35 -442q0 -229 -33 -414q-20 -111 -58 -234q-51 -160 -98 -211q-31 -33 -71 -32q-45 0 -75 27.5t-30 70.5z" />
<glyph unicode="*" horiz-adv-x="1038" d="M172 987q0 51 64 80q55 27 155 61q-92 31 -155.5 63t-63.5 79q0 37 24.5 63.5t61.5 26.5q51 0 95 -42t98 -77q-2 27 -13 88q-10 55 -10 86q0 100 90 101q92 0 92 -99q0 -33 -10 -88q-12 -66 -14 -88q49 33 100 80q43 39 94 39q86 0 86 -88q0 -51 -60.5 -81t-158.5 -63 q53 -18 156 -59q63 -29 63 -86q0 -35 -25.5 -61.5t-60.5 -26.5q-33 0 -67 25q-88 61 -127 100q2 -23 14 -88q10 -55 10 -90q0 -100 -94 -101q-88 0 -88 101q0 33 10 88q10 63 13 90q-47 -35 -97.5 -80t-97.5 -45q-35 0 -59.5 28.5t-24.5 63.5z" />
<glyph unicode="+" horiz-adv-x="1437" d="M154 569q0 92 84 93h387v389q0 84 94 84q92 0 92 -84v-389h387q84 -1 84 -93t-86 -92h-385v-393q0 -84 -92 -84q-94 0 -94 86v391h-387q-37 0 -60.5 27.5t-23.5 64.5z" />
<glyph unicode="," horiz-adv-x="495" d="M-14 -184q0 37 24 84l152 284q45 86 117 86q47 0 78.5 -29.5t31.5 -76.5q0 -41 -22 -84l-152 -283q-47 -88 -121 -88q-45 0 -76.5 31t-31.5 76z" />
<glyph unicode="-" horiz-adv-x="835" d="M74 582q0 117 127 116h432q129 1 129 -114q0 -113 -129 -113h-430q-129 0 -129 111z" />
<glyph unicode="." horiz-adv-x="495" d="M104 135q0 61 44.5 105.5t105.5 44.5q63 0 105 -43t42 -107q0 -61 -43 -105t-104 -44q-59 0 -104.5 45t-45.5 104z" />
<glyph unicode="/" horiz-adv-x="815" d="M-27 76q0 37 19 74l624 1282q45 92 117 92q47 0 79 -29t32 -76q0 -29 -21 -71l-622 -1285q-45 -94 -119 -94q-45 0 -77 31t-32 76z" />
<glyph unicode="0" d="M55 748q0 317 109 518q139 256 432 256t432 -256q109 -201 109 -518t-111 -521q-139 -256 -430 -256t-430 256q-111 203 -111 521zM322 750q0 -541 276 -541q160 0 227 205q45 133 45 336q0 199 -45 333q-70 203 -227 203q-162 0 -229 -201q-47 -135 -47 -335z" />
<glyph unicode="1" d="M178 121q0 119 137 119h160v1024h-135q-123 0 -123 102q0 74 96 104q49 16 157 24.5t173 8.5q63 0 79.5 -25.5t16.5 -129.5v-1108h140q135 0 135 -117q0 -123 -135 -123h-562q-59 0 -99 31.5t-40 89.5z" />
<glyph unicode="2" d="M113 117q0 37 39 86q57 66 167 196q168 211 281 365q39 51 111 156q59 104 59 176q0 80 -51 132t-131 52q-78 0 -135 -49q-39 -33 -62 -123q-29 -117 -37 -135q-31 -66 -100 -66q-61 0 -96 45q-33 39 -33 103q0 72 22 145q49 158 175 242q119 80 288 80q186 0 312 -113 q129 -119 129 -303q0 -137 -93 -283q-51 -80 -210 -282q-82 -104 -259 -303h443q160 0 160 -121q0 -117 -162 -117h-672q-145 0 -145 117z" />
<glyph unicode="3" d="M90 356q0 51 33 88t84 37q53 0 100 -71q76 -119 88 -131q68 -72 174 -72q143 0 205 106q29 53 29 136q0 201 -236 223q-133 12 -133 112q0 74 78 105q145 53 147 55q78 51 78 178q0 76 -45 120t-121 44q-94 0 -147 -45q-45 -39 -76 -133q-25 -72 -94 -72q-49 0 -81 43 t-32 95q0 63 35 126q57 106 176 166q109 55 238 56q174 0 289.5 -105.5t115.5 -277.5q0 -207 -172 -328q250 -101 250 -375q0 -213 -149 -342q-141 -123 -359 -123q-168 0 -286 80q-188 127 -189 305z" />
<glyph unicode="4" d="M49 489q0 96 72 211l414 668q45 74 88 105q51 39 129 38q197 0 196 -245v-682q82 0 99 -11q71 -12 71 -104q0 -70 -55 -92q-35 -16 -115 -17v-235q0 -141 -131 -141q-117 0 -117 143v233h-477q-174 0 -174 129zM303 584h397v641q-6 -4 -397 -641z" />
<glyph unicode="5" d="M98 244q0 45 29 79.5t74 34.5q35 0 137 -70.5t205 -70.5q119 0 187.5 79t68.5 198q0 262 -238 262q-45 0 -127 -28t-127 -28q-94 0 -94 121q0 12 6 56q10 53 10 61q10 94 58 426q10 78 40.5 104.5t108.5 26.5h465q147 0 148 -121q0 -117 -144 -117h-387l-41 -292 q86 31 166 30q195 0 315 -145q117 -137 117 -334q0 -129 -41 -227q-61 -147 -192 -232.5t-293 -85.5q-111 0 -221 43q-121 47 -187 125q-43 51 -43 105z" />
<glyph unicode="6" d="M98 508q0 412 461 881q133 135 184 135t88 -35t37 -86q0 -45 -45 -90q-203 -201 -319 -385h4q82 37 180 37q188 0 301 -150q105 -135 105 -330q0 -227 -141.5 -370.5t-368.5 -143.5q-219 0 -357 162q-129 152 -129 375zM367 498q0 -117 53 -195q61 -88 172 -88t174 80 q57 73 57 188q0 113 -57 187.5t-168 74.5q-133 0 -197 -102q-35 -55 -34 -145z" />
<glyph unicode="7" d="M88 1376q0 119 148 119h706q172 0 172 -119q0 -37 -29 -100l-534 -1190q-53 -119 -131 -119q-51 0 -94 33t-43 84t28 113l482 1042l10 18h-565q-150 0 -150 119z" />
<glyph unicode="8" d="M94 440q0 270 236 383q-164 106 -164 312q0 176 129 284q121 102 301 103q180 0 303 -103q129 -109 129 -284q0 -207 -166 -312q236 -111 236 -383q0 -217 -141.5 -343t-360.5 -126t-356 123q-145 131 -146 346zM360 457q0 -117 60.5 -185.5t175.5 -68.5 q117 0 177.5 68.5t60.5 185.5q0 113 -63.5 188.5t-174.5 75.5q-109 0 -174 -80q-61 -72 -62 -184zM412 1120q0 -88 47 -143q51 -61 137 -62q86 0 136 58.5t50 146.5q0 82 -51 129t-135 47q-80 0 -132 -48t-52 -128z" />
<glyph unicode="9" d="M98 1006q0 221 144.5 369.5t365.5 148.5q233 0 365 -156q121 -145 121 -383q0 -174 -49.5 -313.5t-143.5 -272.5q-303 -430 -463 -430q-49 0 -81.5 37t-32.5 86q0 37 32 76q20 23 88 88q164 156 261 311h-3q-80 -37 -194 -37q-186 0 -303 148q-106 135 -107 328z M369 1012q0 -115 51 -185q57 -78 168 -77q109 0 173 69.5t64 177.5q0 119 -51 195q-61 88 -174 88q-109 0 -170 -79t-61 -189z" />
<glyph unicode=":" horiz-adv-x="495" d="M104 135q0 61 44.5 105.5t105.5 44.5q63 0 105 -43t42 -107q0 -63 -42 -106t-105 -43q-61 0 -105.5 44t-44.5 105zM104 805q0 61 44.5 105t105.5 44q63 0 105 -43t42 -106q0 -61 -43 -104.5t-104 -43.5q-59 0 -104.5 44t-45.5 104z" />
<glyph unicode=";" horiz-adv-x="495" d="M-14 -180q0 33 22 76l156 290q45 84 117 84q47 0 78.5 -28.5t31.5 -75.5q0 -37 -24 -84l-150 -285q-45 -86 -121 -86q-45 0 -77.5 32t-32.5 77zM104 805q0 61 44.5 105t105.5 44q63 0 105 -43t42 -106q0 -61 -43 -104.5t-104 -43.5q-59 0 -104.5 44t-45.5 104z" />
<glyph unicode="&#x3c;" horiz-adv-x="1437" d="M182 571q0 82 99 127l770 346q41 18 77 19q78 0 78 -78q0 -72 -63 -100l-701 -307q6 -6 709 -318q55 -24 55 -94q0 -78 -80 -78q-35 0 -71 16l-781 351q-92 41 -92 116z" />
<glyph unicode="=" horiz-adv-x="1437" d="M180 356q0 41 25.5 69t66.5 28h899q86 0 86 -95q0 -94 -88 -94h-897q-39 0 -65.5 26.5t-26.5 65.5zM180 797q0 39 26.5 67.5t65.5 28.5h899q86 0 86 -94t-88 -94h-897q-39 0 -65.5 26.5t-26.5 65.5z" />
<glyph unicode="&#x3e;" horiz-adv-x="1437" d="M231 166q0 70 56 94l708 313q-6 6 -14 13l-686 299q-63 29 -64 100q0 78 78 78q37 0 78 -19l772 -346q96 -43 96 -127q0 -76 -90 -116l-782 -351q-37 -16 -72 -16q-80 0 -80 78z" />
<glyph unicode="?" horiz-adv-x="1001" d="M27 1163q0 66 39 131q63 106 177.5 165t241.5 59q199 0 332 -113q139 -120 139 -315q0 -170 -97 -282t-265 -144q0 -135 -8 -168q-25 -94 -121 -95q-59 0 -92 41t-33 103v205q0 51 25.5 76.5t103.5 50.5q104 33 147 71q59 53 60 150q0 84 -56.5 130t-140.5 46 q-98 0 -157 -60l-82 -110q-43 -59 -101 -60q-49 0 -80.5 34t-31.5 85zM322 117q0 61 43 103t104 42t102 -42t41 -103t-41 -103.5t-102 -42.5q-59 0 -103 43t-44 103z" />
<glyph unicode="@" horiz-adv-x="1892" d="M66 643q0 371 260 620.5t632 249.5q354 0 586 -165q260 -189 260 -531q0 -256 -96 -411q-117 -188 -358 -189q-61 0 -123 33q-68 39 -80 92q-2 -2 -6 -4q-39 -31 -127 -86q-76 -35 -176 -35q-145 0 -240 119q-86 111 -86 260q0 160 70 285q74 135 215 192q80 33 159 33 q143 0 228 -111q10 27 32.5 67t67.5 40q92 0 92 -74v-24q0 -14 -2 -27l-74 -420q-6 -35 -6 -78q0 -111 90 -110q248 0 248 436q0 272 -209 420q-184 131 -467 131q-315 0 -516.5 -201t-201.5 -516q0 -330 180 -500q174 -164 508 -164q160 0 272 31q106 29 203 78 q78 39 102 39q66 0 66 -72q0 -35 -62 -76q-98 -66 -278 -112q-170 -45 -299 -45q-399 0 -629 211q-236 217 -235 614zM711 608q0 -227 168 -227q123 0 196 117q62 100 62 231q0 211 -179 211q-125 0 -190 -109q-57 -90 -57 -223z" />
<glyph unicode="A" horiz-adv-x="1298" d="M10 100q0 41 13 74l436 1174q61 165 192 165h2q137 0 193 -153l430 -1184q16 -45 16 -78q0 -51 -37.5 -82.5t-91.5 -31.5q-94 0 -133 114l-82 240h-602l-86 -246q-39 -108 -123 -108h-2q-53 0 -89 31.5t-36 84.5zM424 567h448l-221 652q-4 -6 -10 -21z" />
<glyph unicode="B" horiz-adv-x="1210" d="M129 156v1169q0 170 164 170h307q180 0 309 -90q147 -100 148 -272q0 -252 -193 -332v-4q285 -72 285 -357q0 -209 -150 -329q-139 -111 -352 -111h-352q-88 0 -127 35t-39 121zM391 225h207q281 0 281 221q0 231 -273 232h-215v-453zM391 887h180h2q220 0 220 192 q0 94 -58.5 142.5t-152.5 48.5h-191v-383z" />
<glyph unicode="C" horiz-adv-x="1257" d="M63 745q0 324 185 543q195 231 514 232q283 0 407 -148q35 -41 35 -86t-33.5 -78.5t-78.5 -33.5q-25 0 -64 22q-84 47 -158 68q-47 12 -116 12q-195 0 -310 -176q-98 -154 -98 -359q0 -207 100 -352q117 -168 314 -168q86 0 145.5 17.5t124 50.5t94.5 33q45 0 75 -36 t30 -81q0 -86 -117 -150q-86 -47 -194 -65q-82 -14 -160 -15q-319 0 -512 230q-182 215 -183 540z" />
<glyph unicode="D" horiz-adv-x="1394" d="M133 147v1178q0 90 38 130t128 40h326q254 0 419 -119q139 -100 216 -270q71 -160 71 -342q0 -336 -170 -541q-184 -223 -512 -223h-352q-164 0 -164 147zM395 238h221q221 0 334 159q99 140 99 369q0 225 -111 352q-117 137 -338 137h-205v-1017z" />
<glyph unicode="E" horiz-adv-x="995" d="M129 156v1167q0 172 156 172h475q160 0 160 -123t-162 -123h-367v-358h336q162 0 162 -119t-162 -119h-336v-409h373q160 0 160 -125q0 -119 -166 -119h-469q-86 0 -123 35t-37 121z" />
<glyph unicode="F" horiz-adv-x="940" d="M129 152v1171q0 172 156 172h463q155 0 155 -125q0 -121 -164 -121h-348v-358h314q160 0 159 -117q0 -121 -159 -121h-314v-499q0 -170 -133 -170q-129 0 -129 168z" />
<glyph unicode="G" horiz-adv-x="1439" d="M59 750q0 326 185 538q193 225 514 225q152 0 286 -47q164 -57 232 -163q18 -29 18 -64q0 -117 -112 -117q-39 0 -70 21q-70 47 -96 63q-57 35 -107 49q-68 20 -157 21q-197 0 -314 -166q-100 -147 -100 -354q0 -211 98 -361q115 -174 316 -174q113 0 206 51.5t136 149.5 q28 61 28 216v11h-233q-160 0 -160 117t160 117h330q104 0 141 -47.5t37 -153.5q0 -313 -170 -502q-177 -196 -485 -196h-3q-309 0 -499 233q-180 217 -181 533z" />
<glyph unicode="H" horiz-adv-x="1419" d="M129 156v1179q0 174 129 174q133 0 133 -174v-440h637v440q0 174 131 174t131 -174v-1179q0 -172 -131 -172t-131 172v501h-637v-501q0 -172 -133 -172q-129 0 -129 172z" />
<glyph unicode="I" horiz-adv-x="524" d="M131 154v1185q0 170 131 170t131 -170v-1183q0 -172 -131 -172t-131 170z" />
<glyph unicode="J" horiz-adv-x="681" d="M-92 -80q0 113 115 113q29 0 79 -16.5t80 -16.5q104 0 105 150v1191q0 168 129 168q135 0 135 -168v-1216q0 -160 -88 -260q-94 -104 -252 -105q-102 0 -188 33q-115 43 -115 127z" />
<glyph unicode="K" horiz-adv-x="1236" d="M129 152v1187q0 170 129 170q133 0 133 -168v-436l547 527q79 77 132 77h1q51 0 87 -35.5t36 -87.5q0 -53 -86 -133l-479 -448l569 -584q59 -62 59 -121q0 -51 -36.5 -84.5t-87.5 -33.5q-61 0 -140 81l-602 633v-544q0 -168 -133 -168q-129 0 -129 168z" />
<glyph unicode="L" horiz-adv-x="872" d="M129 162v1177q0 170 131 170t131 -174v-1091h332q174 0 174 -121q0 -123 -160 -123h-450q-86 0 -122 38t-36 124z" />
<glyph unicode="M" horiz-adv-x="1755" d="M41 119q0 4 6 47l25 168l147 993q12 80 69.5 131t137.5 51q150 0 190 -151l258 -967h7l258 967q41 151 188 151h2q82 0 139.5 -51t69.5 -131l176 -1208q2 -12 2 -24q0 -47 -33 -81q-30 -30 -83 -30h-3q-72 0 -102 45q-25 31 -35 110l-141 1004h-4l-275 -985 q-43 -156 -161 -156q-119 0 -162 156l-279 985h-4l-137 -1004q-10 -80 -35 -112q-31 -43 -104 -43q-117 0 -117 135z" />
<glyph unicode="N" horiz-adv-x="1484" d="M129 152v1196q0 163 116 163h1q80 0 143 -86l709 -966v880q0 170 129 170q133 0 133 -170v-1208q0 -154 -119 -154q-84 0 -149 91l-701 972v-890q0 -166 -133 -166q-129 0 -129 168z" />
<glyph unicode="O" horiz-adv-x="1495" d="M61 745q0 326 179 537q190 227 508 227q319 0 509 -225q177 -211 177 -539q0 -324 -179 -536q-190 -225 -507 -225q-315 0 -506 227q-180 213 -181 534zM340 745q0 -213 94 -356q109 -166 314 -166t315 166q92 141 92 356q0 260 -115.5 392.5t-291.5 132.5 q-174 0 -291 -133t-117 -392z" />
<glyph unicode="P" horiz-adv-x="1183" d="M129 152v1173q0 170 162 170h340q231 0 373.5 -129t142.5 -358q0 -154 -72 -273q-76 -125 -215 -180q-90 -37 -203 -37h-266v-368q0 -166 -133 -166q-129 0 -129 168zM391 752h205q123 0 198.5 67.5t75.5 190.5q0 247 -268 247h-2h-209v-505z" />
<glyph unicode="Q" horiz-adv-x="1490" d="M59 745q0 324 179 537q190 227 507 227q319 0 510 -225q176 -213 177 -539q0 -266 -134 -471l140 -133q43 -41 43 -100q0 -45 -33 -76t-78 -31q-55 0 -104 48q-43 41 -131 124q-155 -122 -386 -122h-4q-315 0 -505 227q-180 213 -181 534zM338 745q0 -250 116.5 -385 t293.5 -135q115 0 200 66q-12 10 -57 57q-70 74 -70 117q0 45 30 75.5t75 30.5q43 0 92 -43q39 -37 78 -73q57 137 57 290q0 258 -115 391.5t-293 133.5q-176 0 -291.5 -134.5t-115.5 -390.5z" />
<glyph unicode="R" horiz-adv-x="1159" d="M129 152v1173q0 170 162 170h293q223 0 360 -109q150 -117 150 -335q0 -379 -404 -408l373 -412q65 -71 65 -137q0 -51 -34.5 -82.5t-85.5 -31.5q-66 0 -134 79l-473 568l-10 10v-487q0 -166 -133 -166q-129 0 -129 168zM391 819q51 -12 170 -12q262 0 262 231 q0 219 -241 219h-191v-438z" />
<glyph unicode="S" horiz-adv-x="1050" d="M47 197q0 53 35 83.5t88 30.5q23 0 94 -28q98 -37 103 -39q78 -25 161 -25q90 0 157 64.5t67 154.5q0 131 -179 205q-166 68 -331 135q-178 106 -179 316q0 195 150 309q137 106 338 106q207 0 317 -86q61 -47 62 -108q0 -51 -34 -81t-85 -30q-37 0 -126 37t-146 37 q-84 0 -142.5 -46t-58.5 -130q0 -70 57 -107q45 -29 162 -73q248 -96 322 -152q147 -110 147 -309q0 -223 -158 -355q-146 -122 -370 -122h-4q-137 0 -269 45q-178 59 -178 168z" />
<glyph unicode="T" horiz-adv-x="974" d="M-14 1374q0 121 166 121h671q166 0 166 -121q0 -119 -162 -119h-209v-1103q0 -168 -133 -168q-129 0 -129 168v1103h-206q-164 0 -164 119z" />
<glyph unicode="U" horiz-adv-x="1454" d="M123 592v749q0 168 129 168q133 0 133 -168v-731q0 -176 82 -276q90 -106 262 -107q170 0 260 109q84 102 84 274v731q0 168 127 168q133 0 133 -168v-749q0 -283 -160.5 -445.5t-443.5 -162.5q-285 0 -445.5 161.5t-160.5 446.5z" />
<glyph unicode="V" horiz-adv-x="1189" d="M-10 1389q0 57 34.5 94t90.5 37q90 0 133 -121l354 -991l6 12l340 975q41 116 133 116h2h2q119 0 119 -122q0 -45 -14 -84l-453 -1209q-43 -114 -135 -114h-2q-94 0 -133 104l-461 1221q-16 43 -16 82z" />
<glyph unicode="W" horiz-adv-x="1814" d="M29 1370q-2 9 -2 19q0 43 39 84q36 36 89 36h3q113 0 131 -114l176 -1080l305 1086q31 108 135 108h2q113 0 144 -110l301 -1084l178 1074q20 129 135 129q61 0 94 -43q35 -45 35 -89q0 -10 -2 -20l-246 -1208q-37 -178 -188 -178q-139 0 -180 145l-271 975h-4l-264 -969 q-41 -151 -188 -151h-2q-154 0 -187 174z" />
<glyph unicode="X" horiz-adv-x="1216" d="M-8 96q0 51 47 117l418 580l-336 479q-49 70 -49 121t34.5 83.5t86.5 32.5q72 0 133 -90l282 -411l289 413q61 88 137 88q47 0 80 -32.5t33 -79.5q0 -51 -51 -125l-336 -479l418 -580q49 -68 49 -117q0 -47 -35 -79.5t-82 -32.5q-74 0 -135 86l-369 518l-366 -518 q-61 -86 -134 -86q-47 0 -80.5 32.5t-33.5 79.5z" />
<glyph unicode="Y" horiz-adv-x="1048" d="M-18 1399q0 51 35.5 80.5t86.5 29.5q74 0 132 -90l303 -469l305 469q59 90 135 90q49 0 83 -32.5t34 -81.5q0 -39 -49 -115l-377 -578v-548q0 -172 -131 -172t-131 172v548l-377 576q-49 76 -49 121z" />
<glyph unicode="Z" horiz-adv-x="1138" d="M16 125q0 59 60 143l694 992h-559q-166 0 -166 116q0 119 168 119h711q180 0 180 -117q0 -57 -66 -151l-688 -989h621q164 0 164 -119t-166 -119h-783q-170 0 -170 125z" />
<glyph unicode="[" horiz-adv-x="610" d="M139 -86v1458q0 92 38 132t128 40h160q123 0 123 -96q0 -76 -82 -92q-23 -4 -139 -4v-1401q119 0 139 -4q82 -18 82 -94q0 -94 -129 -95h-154q-166 0 -166 156z" />
<glyph unicode="\" horiz-adv-x="815" d="M-27 1423q0 45 31 74t76 29q76 0 119 -88l624 -1288q23 -47 23 -82q0 -45 -33 -74t-78 -29q-74 0 -117 90l-622 1282q-23 47 -23 86z" />
<glyph unicode="]" horiz-adv-x="610" d="M25 -147q0 76 81 94q23 4 138 4v1401q-113 0 -138 4q-82 18 -81 92q0 96 120 96h160q92 0 130 -40t38 -132v-1458q0 -86 -39 -121t-127 -35h-155q-127 0 -127 95z" />
<glyph unicode="^" d="M156 977q0 37 41 90l299 393q41 53 98 53q61 0 102 -55l297 -391q16 -20 30.5 -40.5t14.5 -51.5q0 -41 -28.5 -72t-69.5 -31q-59 0 -100 54l-244 319l-252 -325q-37 -47 -94 -48q-94 0 -94 105z" />
<glyph unicode="_" horiz-adv-x="1048" d="M-35 -293q0 16 9.5 44t21.5 28h1053q14 0 24 -60q8 -45 8 -71q0 -10 -57 -19q-49 -8 -70 -8h-956q-12 0 -23 37q-10 31 -10 49z" />
<glyph unicode="`" horiz-adv-x="733" d="M125 1690q0 47 31.5 76.5t79.5 29.5q27 0 43 -11t32 -26l215 -164q54 -41 54 -88q0 -43 -29 -69.5t-72 -26.5q-23 0 -82 39l-213 141q-59 39 -59 99z" />
<glyph unicode="a" horiz-adv-x="1218" d="M61 555q0 178 78 319q82 154 236 224q90 41 182 41q174 0 293 -135q6 18 18 55q31 71 103 71h2q125 0 125 -165v-811q0 -168 -125 -168q-76 0 -103 67q-6 27 -20 74h-2q-115 -145 -303 -145q-221 0 -359 180q-125 166 -125 393zM324 559q0 -137 57 -229q70 -111 199 -111 q133 0 202 109q59 90 60 231q0 137 -58 229q-69 111 -198 111q-133 0 -203 -106q-59 -92 -59 -234z" />
<glyph unicode="b" horiz-adv-x="1214" d="M121 154v1288q0 170 129 170q125 0 125 -168v-426h6q113 125 281 125q225 0 364 -187q127 -170 127 -401t-133 -395q-143 -176 -369 -176q-184 0 -274 131q-6 -23 -21 -56q-27 -73 -104 -73h-2q-129 0 -129 168zM365 555q0 -139 65 -231q74 -106 207 -107q131 0 199 113 q55 94 55 233q0 135 -60 232q-69 114 -194 114h-2q-133 0 -207 -106q-63 -92 -63 -232v-16z" />
<glyph unicode="c" horiz-adv-x="991" d="M61 559q0 246 142 408q149 172 391 172q113 0 209 -37q129 -49 129 -141q0 -109 -103 -109q-45 0 -102 26.5t-129 26.5q-131 0 -207 -110q-68 -96 -67 -234q0 -147 65 -239q74 -106 215 -107q51 0 133 32t101 32q47 0 75.5 -32t28.5 -79q0 -109 -188 -166 q-73 -22 -159 -22h-7q-246 0 -389 170q-137 160 -138 409z" />
<glyph unicode="d" horiz-adv-x="1214" d="M61 553q0 231 127 401q139 186 365 187q168 0 281 -125h6v426q0 168 125 168q129 0 129 -170v-1288q0 -168 -129 -168q-80 0 -107 73q-4 18 -18 54v2h-2q-90 -131 -275 -131q-223 0 -366 176q-136 166 -136 395zM324 561q0 -137 57 -231q68 -115 197 -115q141 0 213 111 q59 93 59 243q0 139 -64 232q-74 106 -206 106q-125 0 -197 -114q-59 -98 -59 -232z" />
<glyph unicode="e" horiz-adv-x="1150" d="M61 563q0 240 148.5 409t386.5 169q209 0 357.5 -154.5t148.5 -365.5q0 -68 -44 -106t-114 -38h-620q4 -121 86 -195.5t202 -74.5q100 0 226.5 64.5t138.5 64.5q102 0 102 -105q0 -33 -30 -73q-66 -86 -201 -135q-119 -43 -244 -43q-244 0 -397 172q-145 164 -146 411z M322 655h524q-4 115 -70.5 193t-179.5 78t-189.5 -78t-84.5 -193z" />
<glyph unicode="f" horiz-adv-x="602" d="M-8 1012q0 112 173 112h3q0 258 29 334q57 147 268 148q172 0 172 -121q0 -72 -43 -99q-33 -20 -107 -20q-31 0 -47 -27t-16 -215q104 0 139 -10q74 -23 74 -102q0 -80 -74 -103q-35 -10 -139 -10v-752q0 -165 -129 -165h-2q-125 0 -125 168v749h-39q-53 0 -95 31t-42 82 z" />
<glyph unicode="g" horiz-adv-x="1204" d="M59 561q0 233 127 397q139 180 367 181q190 0 285 -140q25 125 129 125q74 0 100 -49q18 -37 18 -117v-806q0 -127 -18 -228q-37 -197 -180 -297q-133 -94 -340 -94q-227 0 -371 96q-90 61 -90 138q0 47 29.5 75.5t77.5 28.5q35 0 122 -45q123 -63 242 -64q281 0 281 338 v43h-7q-99 -157 -292 -157h-2q-219 0 -355 184q-123 166 -123 391zM322 557q0 -133 59 -229q70 -113 197 -113q129 0 202 102q66 91 66 224q0 154 -58 247q-70 113 -213 113q-123 0 -192 -115q-61 -100 -61 -229z" />
<glyph unicode="h" horiz-adv-x="1183" d="M119 154v1288q0 170 129 170q131 0 131 -170q0 -428 2 -434q99 122 288 122h3q193 0 299 -114q100 -113 100 -307v-555q0 -168 -129 -168t-129 168v493q0 262 -207 262q-113 0 -172 -75q-55 -68 -55 -183v-497q0 -168 -131 -168q-129 0 -129 168z" />
<glyph unicode="i" horiz-adv-x="505" d="M100 1403q0 63 45 107t109 44q61 0 106.5 -45t45.5 -106q0 -63 -44.5 -108.5t-107.5 -45.5t-108.5 45t-45.5 109zM125 154v809q0 167 127 167h2q129 0 129 -165v-811q0 -168 -129 -168t-129 168z" />
<glyph unicode="j" horiz-adv-x="505" d="M100 1403q0 63 45 107t109 44q61 0 106.5 -45t45.5 -106q0 -63 -44.5 -108.5t-107.5 -45.5t-108.5 45t-45.5 109zM125 -289v1252q0 167 127 167h2q129 0 129 -165v-1254q0 -170 -129 -170t-129 170z" />
<glyph unicode="k" horiz-adv-x="1007" d="M119 154v1290q0 166 129 166q131 0 131 -168v-699l354 328q63 59 123 59q47 0 78 -29.5t31 -76.5q0 -63 -60 -113l-325 -274l399 -422q51 -53 51 -127q0 -45 -34.5 -73.5t-82.5 -28.5q-72 0 -133 71l-401 469v-372q0 -168 -131 -168q-129 0 -129 168z" />
<glyph unicode="l" horiz-adv-x="509" d="M127 156v1284q0 170 129 170t129 -168v-1286q0 -170 -129 -170t-129 170z" />
<glyph unicode="m" horiz-adv-x="1794" d="M119 152v809q0 163 125 163h2q98 0 129 -106q105 112 273 112h3q203 0 314 -169q132 169 340 169h2q180 0 280 -122q96 -115 96 -297v-561q0 -166 -129 -166q-127 0 -127 166v505q0 254 -186 254q-104 0 -162 -73q-49 -68 -49 -177v-507q0 -166 -129 -166 q-127 0 -127 166v501q0 256 -194 256q-205 0 -205 -243v-514q0 -166 -127 -166q-129 0 -129 166z" />
<glyph unicode="n" horiz-adv-x="1181" d="M119 154v802q0 168 129 168q70 0 102 -55q10 -29 23 -59l2 -4q103 124 294 124h3q195 0 297 -115.5t102 -312.5v-548q0 -166 -131 -166q-127 0 -127 166v497q0 256 -219 256q-217 0 -217 -256v-497q0 -170 -127 -170q-131 0 -131 170z" />
<glyph unicode="o" horiz-adv-x="1173" d="M61 557q0 244 140 408q150 176 387 176q242 0 387 -174q137 -164 137 -410q0 -244 -139 -407q-145 -172 -385 -173q-236 0 -385 175q-141 166 -142 405zM324 559q0 -139 61 -233q72 -111 203 -111q133 0 203 111q59 92 59 233q0 139 -59 234q-72 112 -203 112 q-133 0 -205 -110q-59 -94 -59 -236z" />
<glyph unicode="p" horiz-adv-x="1212" d="M121 -291v1254q0 167 127 167h2q82 0 110 -75q4 -18 17 -51h2q88 131 289 131q231 0 364 -177q121 -157 121 -397q0 -238 -125 -403q-137 -182 -366 -183q-168 0 -279 125h-6v-391q0 -174 -125 -174q-131 0 -131 174zM367 520q0 -125 69 -215q76 -96 199 -96 q133 0 203 113q55 94 55 237q0 139 -57 232q-67 110 -197 110h-2q-131 0 -205 -102q-66 -90 -65 -228v-51z" />
<glyph unicode="q" horiz-adv-x="1212" d="M59 561q0 240 121 397q135 176 367 177q201 0 289 -131h2q12 33 22 67q31 59 105 59q127 0 127 -167v-1254q0 -174 -129 -174q-125 0 -125 176v389h-7q-113 -125 -280 -125q-229 0 -367 183q-125 166 -125 403zM322 559q0 -141 55 -235q68 -115 201 -115q135 0 206 104 q63 90 64 232v39q0 137 -66 223q-74 94 -207 94q-131 0 -198 -110q-55 -92 -55 -232z" />
<glyph unicode="r" horiz-adv-x="729" d="M119 152v806q0 166 129 166q76 0 102 -67q6 -31 25 -78h2q41 63 107.5 109.5t136.5 46.5q57 0 93 -35t36 -92q0 -66 -74 -105q-76 -31 -152 -61q-92 -41 -121 -105q-24 -51 -24 -154v-8v-425q0 -164 -131 -164q-129 0 -129 166z" />
<glyph unicode="s" horiz-adv-x="927" d="M37 207q0 117 117 117q41 0 132 -58.5t173 -58.5q61 0 106 24q55 29 56 84q0 70 -142 134q-229 100 -260 120q-141 94 -141 238q0 156 125 250q113 84 274 84q111 0 232 -54q145 -63 145 -159q0 -47 -30.5 -79t-78.5 -32q-37 0 -127 49t-149 49q-53 0 -92 -24 q-47 -27 -47 -78q0 -49 63 -80q106 -47 215 -94q131 -61 197 -119q76 -67 76 -190q0 -166 -138 -264q-123 -88 -294 -89q-242 0 -369 134q-43 45 -43 96z" />
<glyph unicode="t" horiz-adv-x="602" d="M-8 1012q0 112 173 112h3v199q0 164 127 164q129 0 129 -166v-197q104 0 139 -10q74 -22 74 -102t-74 -103q-35 -10 -139 -10v-747q0 -166 -131 -166q-125 0 -125 168v745h-39q-53 0 -95 31t-42 82z" />
<glyph unicode="u" horiz-adv-x="1167" d="M113 436v529q0 165 127 165h2q129 0 129 -165v-492q0 -260 213 -260t213 260v492q0 165 129 165h2q127 0 127 -165v-529q0 -221 -125 -340t-346 -119q-219 0 -345 120t-126 339z" />
<glyph unicode="v" horiz-adv-x="929" d="M0 1012q0 55 34 89t89 34q92 0 129 -115l221 -684l219 694q33 102 125 103q119 0 119 -123q0 -35 -16 -80l-306 -830q-45 -120 -141 -120h-2q-100 0 -147 126l-312 836q-12 33 -12 70z" />
<glyph unicode="w" horiz-adv-x="1570" d="M4 1008q0 53 35 86.5t88 33.5q98 0 133 -112l211 -697q2 4 4 13l191 680q35 123 127 123t129 -125l200 -686q2 4 4 10l205 686q33 110 127 110h2q55 0 87 -35.5t32 -90.5q0 -31 -16 -78l-285 -820q-45 -126 -143 -126h-2q-115 0 -154 137l-180 637h-8l-183 -633 q-41 -141 -151 -141q-106 0 -156 141l-254 729q-43 123 -43 158z" />
<glyph unicode="x" horiz-adv-x="1003" d="M2 106q0 57 51 119l305 369l-264 309q-47 55 -47 107q0 49 35 86t84 37q61 0 106 -56l240 -299l227 293q47 61 107 62q55 0 89 -35t34 -90q0 -45 -49 -105l-256 -311l297 -365q57 -70 57 -133q0 -47 -34 -80.5t-81 -33.5q-68 0 -125 73l-270 353l-270 -355 q-54 -71 -115 -71h-2q-49 0 -84 38.5t-35 87.5z" />
<glyph unicode="y" horiz-adv-x="952" d="M18 1006q0 53 35 88.5t88 35.5q88 0 131 -114l230 -617l221 633q35 98 117 98h2q123 0 123 -120q0 -35 -19 -82l-493 -1288q-41 -109 -121 -109q-55 0 -88 34t-33 89q0 41 18 86l144 348l-340 848q-14 35 -15 70z" />
<glyph unicode="z" horiz-adv-x="935" d="M12 80q0 51 47 117l494 690h-377q-57 0 -102 29.5t-45 84.5q0 117 149 117h582q147 0 147 -84q0 -45 -53 -119l-489 -682h421h2q146 0 146 -118q0 -115 -150 -115h-637q-135 0 -135 80z" />
<glyph unicode="{" horiz-adv-x="819" d="M80 604q0 66 78 84q94 23 123.5 74t29.5 178v291q0 152 67.5 216t219.5 64q63 0 80 -10q59 -14 59 -76q0 -74 -73 -84q-96 -12 -115 -32q-27 -29 -27 -127v-277q0 -119 -26 -182q-37 -88 -136 -113v-8q98 -25 136 -113q27 -63 26 -182v-276q0 -94 24.5 -123t59.5 -32 t68 -7q63 -14 63 -82q0 -63 -49 -78q-20 -8 -100 -8q-150 0 -213.5 65.5t-63.5 215.5v290q0 127 -30 181q-27 45 -123 69q-78 18 -78 82z" />
<glyph unicode="|" horiz-adv-x="741" d="M240 29v1413q0 170 131 170t131 -170v-1411q0 -172 -131 -172t-131 170z" />
<glyph unicode="}" horiz-adv-x="819" d="M84 -213q0 74 76 84q96 12 117.5 37.5t21.5 122.5v276q0 119 27 182q37 88 135 113v8q-98 25 -135 113q-27 63 -27 182v277q0 98 -25 127q-18 20 -114 32q-76 10 -76 84q0 66 57 76q19 10 80 10q154 0 220.5 -63.5t66.5 -216.5v-291q0 -125 30.5 -177t125.5 -75 q76 -18 75 -84q0 -63 -75 -82q-96 -25 -123 -69q-33 -55 -33 -181v-290q0 -156 -65.5 -218.5t-221.5 -62.5q-66 0 -80 8q-57 10 -57 78z" />
<glyph unicode="~" horiz-adv-x="1437" d="M162 557q0 111 112 186q102 70 218 70q109 0 194 -41q51 -25 168 -106q35 -25 88 -25q63 0 121.5 70.5t112.5 70.5q102 0 102 -88q0 -47 -27 -94q-45 -78 -129 -121t-178 -43q-111 0 -194 43q-33 16 -164 109q-33 23 -90 22q-59 0 -121 -71.5t-115 -71.5q-98 0 -98 90z " />
<glyph unicode="&#xa4;" horiz-adv-x="1198" d="M57 377q0 10 52 63l102 107q-90 121 -90 278q0 166 90 283q-154 160 -154 172q0 14 36 52t52 38q14 0 58 -43l114 -117q109 96 285 97q170 0 283 -97q160 160 172 160q14 0 50 -40t36 -54t-154 -168q90 -109 90 -281q0 -166 -90 -280q156 -156 156 -172q0 -20 -39 -53 t-62 -33q-6 0 -159 155q-113 -96 -285 -96q-168 0 -281 96q-166 -160 -176 -159q-14 0 -50 38.5t-36 53.5zM285 829q0 -133 92 -228t225 -95t224.5 95t91.5 228t-92.5 227.5t-223.5 94.5q-133 0 -225 -94t-92 -228z" />
<glyph unicode="&#xa6;" horiz-adv-x="796" d="M303 29v469q0 170 131 170t131 -170v-467q0 -172 -131 -172t-131 170zM303 971v469q0 170 131 170t131 -170v-467q0 -172 -131 -172t-131 170z" />
<glyph unicode="&#xa7;" horiz-adv-x="1134" d="M37 590q0 225 227 336q-121 92 -121 239q0 150 116 253.5t325 103.5q98 0 180 -27q106 -35 178 -104q82 -82 82 -183q0 -53 -29.5 -89t-81.5 -36q-57 0 -94 62q-61 100 -74 112q-59 61 -176 62q-72 0 -125 -33q-61 -39 -61 -106q0 -43 47 -82q27 -23 129 -82 q61 -37 186 -105q170 -80 244 -149q113 -103 113 -250q0 -215 -207 -338q119 -100 119 -242q0 -145 -115 -247.5t-324 -102.5q-119 0 -229 43q-125 49 -190 133q-51 66 -52 138q0 49 32 84.5t79 35.5q59 0 98 -59q68 -100 80 -113q63 -59 180 -59q78 0 132 29q66 37 65 108 q0 53 -49 92q-74 59 -336 181q-348 160 -348 395zM276 614q0 -84 119 -159q20 -12 193 -99q47 -25 141 -69q139 88 139 207q0 78 -75 137q-39 29 -146 80q-70 33 -209 98q-162 -72 -162 -195z" />
<glyph unicode="&#xa9;" horiz-adv-x="1716" d="M96 750q0 313 224.5 537t537.5 224q315 0 539.5 -223t224.5 -538q0 -313 -225.5 -537.5t-538.5 -224.5q-311 0 -536.5 225t-225.5 537zM246 750q0 -254 180 -437.5t432 -183.5q254 0 433 183.5t179 437.5q0 256 -179 438t-433 182t-433 -183t-179 -437zM436 752 q0 199 123 325.5t322 126.5q84 0 141 -20q186 -66 186 -193q0 -82 -86 -82q-29 0 -102.5 56.5t-138.5 56.5q-109 0 -172 -82q-59 -74 -60 -186q0 -113 63.5 -191t174.5 -78q61 0 135 57.5t102 57.5q84 0 84 -82q0 -41 -28 -80q-47 -63 -134.5 -101t-173.5 -38 q-188 0 -312 132t-124 321z" />
<glyph unicode="&#xab;" horiz-adv-x="937" d="M63 557q0 47 78 170q147 233 258 234q80 0 80 -99q0 -37 -45 -92l-176 -213l180 -217q16 -18 33 -39q10 -16 10 -49q0 -39 -22.5 -67.5t-61.5 -28.5q-76 0 -180 129q-78 96 -129 200q-25 51 -25 72zM473 557q0 47 78 170q147 233 260 234q37 0 58.5 -30t21.5 -67 q0 -33 -12 -53q-18 -20 -35 -41l-176 -213l180 -217q16 -18 33 -39q10 -16 10 -51q0 -94 -82 -94q-78 0 -182 129q-78 94 -129 200q-25 51 -25 72z" />
<glyph unicode="&#xac;" horiz-adv-x="1505" d="M164 770q0 96 102 96h1020q20 0 33 -47q10 -35 10 -63v-369q0 -94 -96 -94t-96 96v285h-869q-104 0 -104 96z" />
<glyph unicode="&#xad;" horiz-adv-x="835" d="M74 582q0 117 127 116h432q129 1 129 -114q0 -113 -129 -113h-430q-129 0 -129 111z" />
<glyph unicode="&#xae;" horiz-adv-x="1716" d="M96 750q0 317 222.5 539t539.5 222q315 0 538.5 -223t223.5 -538q0 -313 -224.5 -537.5t-537.5 -224.5t-537.5 224t-224.5 538zM246 750q0 -252 180 -435.5t432 -183.5q250 0 432.5 181t182.5 431q0 133 -46 242q-72 172 -228.5 278.5t-340.5 106.5q-250 0 -431 -184.5 t-181 -435.5zM545 406v694q0 82 71 82h256q338 0 338 -248q0 -193 -198 -234l166 -254q29 -43 28 -90q0 -20 -31.5 -34.5t-56.5 -14.5q-55 0 -96 68l-188 307h-119v-276q0 -98 -86 -99q-84 0 -84 99zM715 807h131q190 0 190 125q0 121 -190 121h-131v-246z" />
<glyph unicode="&#xb0;" horiz-adv-x="706" d="M49 1200q0 133 86 223t219 90t218 -90t85 -223q0 -137 -84 -224t-221 -87q-129 0 -216 91t-87 220zM188 1202q0 -74 47.5 -128t118.5 -54q74 0 120 53t46 129q0 74 -47 127t-119 53q-74 0 -120 -52t-46 -128z" />
<glyph unicode="&#xb1;" horiz-adv-x="1437" d="M172 735q0 96 123 96h330v228q0 100 92 100q98 0 98 -100v-228h334q113 0 113 -98q0 -90 -115 -90h-332v-229q0 -98 -96 -99q-94 0 -94 99v229h-330q-123 0 -123 92zM174 92q0 96 121 96h854q117 0 117 -98q0 -90 -117 -90h-854q-121 0 -121 92z" />
<glyph unicode="&#xb6;" horiz-adv-x="1187" d="M51 1139q0 180 142 278q125 88 311 88h500q102 0 102 -67q0 -51 -35 -64q-14 -4 -78 -4v-1495q0 -100 -84 -100q-80 0 -80 98v1497h-202v-1499q0 -98 -82 -98t-82 100v889q-176 4 -291 100q-121 104 -121 277z" />
<glyph unicode="&#xb7;" horiz-adv-x="593" d="M150 690q0 63 44 108.5t107 45.5t108.5 -45.5t45.5 -108.5t-45 -106t-109 -43q-63 0 -107 43t-44 106z" />
<glyph unicode="&#xbb;" horiz-adv-x="937" d="M68 256q0 35 13 51.5t30 32.5l180 217l-178 213q-43 51 -43 90q-1 101 77 101q53 0 138 -80q102 -98 176 -252q23 -47 22 -72q0 -39 -57 -135q-43 -76 -86 -129q-109 -137 -193 -137q-37 0 -58 30.5t-21 69.5zM475 862q0 39 22.5 69t59.5 30q109 0 258 -234 q78 -121 78 -170q0 -25 -23 -72q-80 -170 -173 -249.5t-140 -79.5q-80 0 -80 100q0 35 13.5 51.5t29.5 32.5l180 217l-178 213q-47 55 -47 92z" />
<glyph unicode="&#x2000;" horiz-adv-x="898" />
<glyph unicode="&#x2001;" horiz-adv-x="1796" />
<glyph unicode="&#x2002;" horiz-adv-x="898" />
<glyph unicode="&#x2003;" horiz-adv-x="1796" />
<glyph unicode="&#x2004;" horiz-adv-x="598" />
<glyph unicode="&#x2005;" horiz-adv-x="449" />
<glyph unicode="&#x2006;" horiz-adv-x="299" />
<glyph unicode="&#x2007;" horiz-adv-x="299" />
<glyph unicode="&#x2008;" horiz-adv-x="224" />
<glyph unicode="&#x2009;" horiz-adv-x="359" />
<glyph unicode="&#x200a;" horiz-adv-x="99" />
<glyph unicode="&#x2010;" horiz-adv-x="835" d="M74 582q0 117 127 116h432q129 1 129 -114q0 -113 -129 -113h-430q-129 0 -129 111z" />
<glyph unicode="&#x2011;" horiz-adv-x="835" d="M74 582q0 117 127 116h432q129 1 129 -114q0 -113 -129 -113h-430q-129 0 -129 111z" />
<glyph unicode="&#x2012;" horiz-adv-x="835" d="M74 582q0 117 127 116h432q129 1 129 -114q0 -113 -129 -113h-430q-129 0 -129 111z" />
<glyph unicode="&#x2013;" horiz-adv-x="1062" d="M0 571q0 96 109 97h849q105 -1 105 -97q0 -92 -105 -92h-852q-106 0 -106 92z" />
<glyph unicode="&#x2014;" horiz-adv-x="2125" d="M0 571q0 96 115 97h1898q113 -1 113 -97q0 -92 -115 -92h-1896q-115 0 -115 92z" />
<glyph unicode="&#x2018;" horiz-adv-x="438" d="M61 1143q0 74 56 180q53 98 112 154q52 47 103 47q74 0 74 -70q0 -33 -64 -78q-29 -20 -54.5 -65t-27.5 -74q4 2 6 2q4 0 9.5 -7t11.5 -7q49 0 49 -107q0 -61 -36 -102t-97 -41q-63 0 -102.5 51t-39.5 117z" />
<glyph unicode="&#x2019;" horiz-adv-x="438" d="M59 1241q0 39 47.5 131t77.5 109q37 39 80 39q70 0 109 -47t39 -119q0 -18 -2 -37q-10 -86 -123 -246q-14 -20 -41 -43q-68 -57 -107 -57t-39 37q0 10 41 44.5t41 88.5v6q-12 -4 -26 -4q-96 0 -97 98z" />
<glyph unicode="&#x201a;" horiz-adv-x="495" d="M51 -8q0 23 11.5 53.5t54.5 104.5q49 82 67 86q29 35 74 34q68 0 105.5 -50t37.5 -120q0 -35 -8 -65q-14 -59 -63 -139t-94 -123q-55 -51 -109 -52q-43 0 -43 39q0 8 44 42t44 89v7q-20 -4 -35 -4q-39 0 -62.5 29.5t-23.5 68.5z" />
<glyph unicode="&#x201c;" horiz-adv-x="804" d="M53 1143q0 66 56 174q53 102 104 151q60 56 115 56q72 0 71 -72q0 -31 -34 -55q-51 -39 -56 -43q-29 -35 -45 -80q-8 -23 -8 -35q4 2 6 2q4 0 9 -7t12 -7q49 0 49 -107q0 -61 -36 -101t-97 -40q-63 0 -104.5 49t-41.5 115zM438 1143q0 68 52.5 173t108 156.5t108.5 51.5 q39 0 38 -37q0 -10 -40.5 -44t-40.5 -87v-6q20 4 28 4q43 0 68.5 -30t25.5 -73q0 -35 -24 -84q-66 -133 -107 -153q-35 -37 -75 -37q-66 0 -104 50t-38 116z" />
<glyph unicode="&#x201d;" horiz-adv-x="804" d="M53 1245q0 16 9.5 48t48.5 102q43 78 65 88q37 39 84 39q70 0 106.5 -49t36.5 -121q0 -29 -8 -60q-16 -59 -65 -143t-92 -123q-55 -49 -107 -49q-39 0 -39 35q0 10 43 45t41 88v6q-12 -4 -24 -4q-98 0 -99 98zM438 1247q0 23 6 43q10 35 50 105q45 80 67 88q31 39 80 39 q70 0 111 -52q34 -46 34 -118q0 -66 -56 -171.5t-111.5 -155.5t-104.5 -50q-41 0 -41 35q0 14 43 48t43 89v6q-12 -6 -27 -6q-94 0 -94 100z" />
<glyph unicode="&#x201e;" horiz-adv-x="804" d="M51 -6q0 20 8 45q12 35 50 104q45 78 65 88q37 39 82 39q68 0 109 -53q34 -49 34 -119q0 -66 -54 -169t-109.5 -154t-110.5 -51q-39 0 -39 38q0 10 43 46t43 88v4q-16 -2 -33 -2q-39 0 -63.5 28.5t-24.5 67.5zM434 -6q0 23 6 45q8 33 51.5 107.5t63.5 84.5q37 39 80 39 q70 0 107.5 -50t37.5 -122q0 -55 -30 -121q-70 -147 -132.5 -200t-113.5 -53q-39 0 -39 36q0 12 44 43t42 91v6q-12 -4 -25 -4q-92 0 -92 98z" />
<glyph unicode="&#x2022;" horiz-adv-x="1083" d="M250 719q0 121 86 207t207 86t206 -86t85 -207q0 -119 -87 -206t-206 -87q-115 0 -203 89t-88 204z" />
<glyph unicode="&#x2026;" horiz-adv-x="2125" d="M213 135q0 63 44.5 106.5t107.5 43.5t105 -43t42 -107q0 -61 -43 -105t-104 -44t-106.5 44t-45.5 105zM913 135q0 61 44 105.5t106 44.5q66 0 106.5 -42t40.5 -108q0 -61 -43 -105t-104 -44q-59 0 -104.5 45t-45.5 104zM1616 135q0 61 44 105.5t105 44.5 q63 0 105.5 -43.5t42.5 -106.5q0 -61 -43 -105t-105 -44q-61 0 -105 44t-44 105z" />
<glyph unicode="&#x202f;" horiz-adv-x="359" />
<glyph unicode="&#x2039;" horiz-adv-x="538" d="M70 557q0 47 77 170q147 233 259 234q80 0 79 -99q0 -39 -45 -92l-178 -213l180 -217q16 -18 33 -39q10 -16 10 -51q0 -94 -82 -94q-29 0 -61 20q-141 90 -248 309q-25 51 -24 72z" />
<glyph unicode="&#x203a;" horiz-adv-x="538" d="M72 862q0 96 84 96q78 0 182 -127q82 -98 131 -200q23 -47 23 -74q0 -80 -144 -262q-37 -45 -88 -88q-66 -51 -106 -51q-80 0 -80 100q0 33 47 90l174 211l-178 217q-16 18 -30.5 36.5t-14.5 51.5z" />
<glyph unicode="&#x205f;" horiz-adv-x="449" />
<glyph unicode="&#x2122;" horiz-adv-x="1896" d="M168 1432q0 66 72 65h462q70 0 70 -63t-67 -64h-152v-508q0 -82 -84 -82q-80 0 -80 82v508h-149q-72 0 -72 62zM893 864v522q0 117 115 117q106 0 143 -94l149 -391l148 395q33 90 141 90q115 0 115 -114v-525q0 -84 -76 -84q-31 0 -51.5 24.5t-20.5 57.5v451h-4 l-180 -459q-23 -57 -74 -57q-49 0 -71 57l-180 459h-5v-449q0 -84 -75 -84q-74 0 -74 84z" />
<glyph unicode="&#xe000;" horiz-adv-x="1136" d="M0 0v1137h1137v-1137h-1137z" />
</font>
</defs>
</svg>
